PathFileType	4	(X/Y/Z)	 3.0Hz3min.trc
DataRate	CameraRate	NumFrames	NumMarkers	Units	OrigDataRate	OrigDataStartFrame	OrigNumFrames
200	200	8	39	m	200	125	998
Frame#	Time	C7			LSH			RSH			MAN			RASI			LASI			HIPR			HIPL			RPSI			LPSI			COX			RTHI1			RTHI2			RTHI3			RTHI4			RLKN			RMKN			RSHA1			RSHA2			RSHA3			RSHA4			RHEEL			RMET5			RMET1			RTOE			LTHI1			LTHI2			LTHI3			LTHI4			LLKN			LMKN			LSHA1			LSHA2			LSHA3			LSHA4			LHEEL			LMET5			LMET1			LTOE			
		X1	Y1	Z1	X2	Y2	Z2	X3	Y3	Z3	X4	Y4	Z4	X5	Y5	Z5	X6	Y6	Z6	X7	Y7	Z7	X8	Y8	Z8	X9	Y9	Z9	X10	Y10	Z10	X11	Y11	Z11	X12	Y12	Z12	X13	Y13	Z13	X14	Y14	Z14	X15	Y15	Z15	X16	Y16	Z16	X17	Y17	Z17	X18	Y18	Z18	X19	Y19	Z19	X20	Y20	Z20	X21	Y21	Z21	X22	Y22	Z22	X23	Y23	Z23	X24	Y24	Z24	X25	Y25	Z25	X26	Y26	Z26	X27	Y27	Z27	X28	Y28	Z28	X29	Y29	Z29	X30	Y30	Z30	X31	Y31	Z31	X32	Y32	Z32	X33	Y33	Z33	X34	Y34	Z34	X35	Y35	Z35	X36	Y36	Z36	X37	Y37	Z37	X38	Y38	Z38	X39	Y39	Z39	
125	0.6250	-0.308983	1.549249	-0.520244	-0.255364	1.544295	-0.698465	-0.261206	1.542280	-0.336309	-0.158886	1.498762	-0.525618	-0.181495	1.031224	-0.403592	-0.185686	1.033140	-0.642534	-0.254056	1.109454	-0.357298	-0.252739	1.103861	-0.686472	-0.352974	1.102123	-0.476657	-0.354992	1.106194	-0.564956	-0.352900	1.107186	-0.517778	-0.278791	0.847274	-0.331435	-0.269825	0.788543	-0.326394	-0.205246	0.796609	-0.321540	-0.206975	0.858128	-0.327918	-0.258555	0.519934	-0.350924	-0.239637	0.507229	-0.470306	-0.334736	0.403945	-0.327473	-0.347475	0.364165	-0.336102	-0.287621	0.352865	-0.336206	-0.279062	0.391545	-0.330364	-0.417479	0.137162	-0.416859	-0.280781	0.053899	-0.341254	-0.221205	0.059859	-0.401157	-0.194574	0.048751	-0.392365	-0.290249	0.852307	-0.715473	-0.274346	0.793415	-0.725523	-0.211174	0.805468	-0.731767	-0.218126	0.864752	-0.722983	-0.271778	0.526355	-0.705250	-0.236485	0.518866	-0.586647	-0.348718	0.397540	-0.717790	-0.361345	0.359744	-0.710610	-0.300703	0.344949	-0.720708	-0.296369	0.388459	-0.727177	-0.427716	0.132359	-0.636272	-0.291796	0.058628	-0.728652	-0.229635	0.066876	-0.675965	-0.206905	0.052683	-0.688308	
126	0.6300	-0.309153	1.549636	-0.520171	-0.255337	1.544775	-0.698382	-0.261165	1.542676	-0.336169	-0.159150	1.498947	-0.525592	-0.181739	1.031713	-0.403411	-0.185875	1.033561	-0.642522	-0.254688	1.109902	-0.357225	-0.253236	1.104219	-0.686369	-0.353191	1.102881	-0.476642	-0.355194	1.106916	-0.564943	-0.353082	1.107969	-0.517758	-0.278404	0.847533	-0.331248	-0.269189	0.788868	-0.326148	-0.204639	0.797172	-0.321652	-0.206630	0.858694	-0.328070	-0.257533	0.520269	-0.350604	-0.238220	0.507450	-0.469813	-0.334326	0.404580	-0.327422	-0.347212	0.364859	-0.336212	-0.287370	0.353305	-0.336061	-0.278691	0.391997	-0.330177	-0.417645	0.137776	-0.417304	-0.281356	0.055256	-0.340243	-0.221388	0.060903	-0.399691	-0.194761	0.049851	-0.390666	-0.289895	0.852563	-0.715501	-0.273796	0.793724	-0.725534	-0.210636	0.805952	-0.731498	-0.217782	0.865212	-0.722694	-0.271024	0.526754	-0.705346	-0.235570	0.519217	-0.586819	-0.348315	0.398138	-0.717681	-0.361001	0.360366	-0.710531	-0.300416	0.345464	-0.720874	-0.296012	0.388974	-0.727288	-0.427340	0.132415	-0.636725	-0.290877	0.059946	-0.729285	-0.228812	0.068347	-0.676552	-0.205964	0.054315	-0.688922	
127	0.6350	-0.309307	1.549798	-0.520103	-0.255297	1.544952	-0.698338	-0.261137	1.542779	-0.335996	-0.159440	1.498867	-0.525578	-0.181949	1.031923	-0.403289	-0.186063	1.033728	-0.642498	-0.255289	1.109990	-0.357106	-0.253722	1.104218	-0.686265	-0.353412	1.103293	-0.476597	-0.355399	1.107288	-0.564902	-0.353275	1.108397	-0.517709	-0.277875	0.847547	-0.330971	-0.268418	0.788940	-0.325831	-0.203914	0.797469	-0.321816	-0.206139	0.858976	-0.328252	-0.256571	0.520422	-0.350272	-0.236901	0.507496	-0.469341	-0.334000	0.405087	-0.327366	-0.347047	0.365434	-0.336372	-0.287244	0.353576	-0.335865	-0.278407	0.392334	-0.329964	-0.417836	0.138150	-0.417632	-0.281814	0.056328	-0.339442	-0.221590	0.061767	-0.398553	-0.194925	0.050778	-0.389357	-0.289398	0.852507	-0.715629	-0.273083	0.793724	-0.725608	-0.209931	0.806133	-0.731217	-0.217284	0.865372	-0.722418	-0.270425	0.526966	-0.705457	-0.234708	0.519323	-0.587028	-0.348052	0.398532	-0.717571	-0.360768	0.360778	-0.710434	-0.300244	0.345808	-0.721074	-0.295797	0.389319	-0.727446	-0.426927	0.132189	-0.637235	-0.289735	0.060915	-0.729614	-0.227866	0.069624	-0.676711	-0.204866	0.055759	-0.689027	
128	0.6400	-0.309444	1.549740	-0.520039	-0.255245	1.544828	-0.698330	-0.261132	1.542593	-0.335793	-0.159761	1.498537	-0.525569	-0.182121	1.031857	-0.403226	-0.186239	1.033653	-0.642458	-0.255843	1.109725	-0.356945	-0.254220	1.103841	-0.686185	-0.353635	1.103351	-0.476526	-0.355609	1.107298	-0.564834	-0.353477	1.108457	-0.517639	-0.277222	0.847338	-0.330623	-0.267543	0.788774	-0.325461	-0.203091	0.797511	-0.322028	-0.205524	0.858993	-0.328467	-0.255675	0.520400	-0.349922	-0.235713	0.507383	-0.468907	-0.333768	0.405414	-0.327377	-0.346935	0.365837	-0.336494	-0.287211	0.353691	-0.335619	-0.278195	0.392517	-0.329725	-0.418046	0.138283	-0.417839	-0.282157	0.057089	-0.338849	-0.221763	0.062453	-0.397740	-0.195027	0.051523	-0.388453	-0.288780	0.852170	-0.715834	-0.272236	0.793446	-0.725731	-0.209094	0.806033	-0.730925	-0.216669	0.865247	-0.722149	-0.269974	0.526987	-0.705582	-0.233943	0.519200	-0.587250	-0.347886	0.398699	-0.717497	-0.360597	0.360954	-0.710361	-0.300127	0.345954	-0.721297	-0.295677	0.389472	-0.727647	-0.426476	0.131688	-0.637772	-0.288386	0.061579	-0.729650	-0.226829	0.070645	-0.676476	-0.203640	0.056970	-0.688670	
129	0.6450	-0.309568	1.549468	-0.519979	-0.255186	1.544405	-0.698358	-0.261153	1.542122	-0.335561	-0.160088	1.497969	-0.525549	-0.182264	1.031531	-0.403217	-0.186399	1.033345	-0.642399	-0.256337	1.109130	-0.356747	-0.254666	1.103147	-0.686119	-0.353860	1.103051	-0.476433	-0.355824	1.106947	-0.564744	-0.353686	1.108148	-0.517555	-0.276476	0.846914	-0.330231	-0.266595	0.788371	-0.325088	-0.202200	0.797290	-0.322272	-0.204824	0.858759	-0.328724	-0.254840	0.520178	-0.349552	-0.234675	0.507120	-0.468523	-0.333602	0.405571	-0.327360	-0.346861	0.366077	-0.336606	-0.287246	0.353633	-0.335328	-0.278033	0.392535	-0.329451	-0.418284	0.138188	-0.417933	-0.282366	0.057587	-0.338475	-0.221845	0.062917	-0.397269	-0.195073	0.052063	-0.387966	-0.288075	0.851591	-0.716095	-0.271307	0.792918	-0.725888	-0.208172	0.805672	-0.730628	-0.215959	0.864855	-0.721894	-0.269637	0.526805	-0.705717	-0.233308	0.518866	-0.587463	-0.347758	0.398612	-0.717496	-0.360442	0.360866	-0.710346	-0.300012	0.345871	-0.721533	-0.295591	0.389397	-0.727882	-0.426011	0.130963	-0.638315	-0.286853	0.061890	-0.729410	-0.225729	0.071412	-0.675898	-0.202327	0.057854	-0.687892	
130	0.6500	-0.309684	1.548981	-0.519924	-0.255129	1.543689	-0.698420	-0.261207	1.541365	-0.335303	-0.160392	1.497161	-0.525499	-0.182380	1.030950	-0.403251	-0.186540	1.032812	-0.642327	-0.256753	1.108231	-0.356523	-0.255060	1.102170	-0.686072	-0.354084	1.102398	-0.476325	-0.356041	1.106249	-0.564636	-0.353899	1.107477	-0.517461	-0.275667	0.846287	-0.329817	-0.265607	0.787746	-0.324730	-0.201265	0.796821	-0.322540	-0.204064	0.858275	-0.329011	-0.254071	0.519731	-0.349188	-0.233793	0.506691	-0.468189	-0.333456	0.405521	-0.327279	-0.346803	0.366106	-0.336698	-0.287290	0.353377	-0.335016	-0.277892	0.392352	-0.329140	-0.418547	0.137889	-0.417909	-0.282449	0.057799	-0.338309	-0.221922	0.063168	-0.397106	-0.195086	0.052343	-0.387876	-0.287313	0.850793	-0.716394	-0.270339	0.792168	-0.726066	-0.207208	0.805065	-0.730329	-0.215190	0.864228	-0.721650	-0.269377	0.526408	-0.705862	-0.232833	0.518333	-0.587652	-0.347609	0.398249	-0.717590	-0.360245	0.360495	-0.710412	-0.299837	0.345531	-0.721771	-0.295464	0.389067	-0.728134	-0.425531	0.130083	-0.638873	-0.285280	0.061744	-0.728921	-0.224621	0.071751	-0.675071	-0.201012	0.058291	-0.686812	
131	0.6550	-0.309799	1.548277	-0.519875	-0.255071	1.542677	-0.698511	-0.261298	1.540337	-0.335022	-0.160648	1.496132	-0.525403	-0.182471	1.030123	-0.403321	-0.186659	1.032059	-0.642240	-0.257086	1.107048	-0.356282	-0.255379	1.100946	-0.686034	-0.354310	1.101400	-0.476209	-0.356255	1.105206	-0.564519	-0.354114	1.106452	-0.517359	-0.274823	0.845449	-0.329402	-0.264602	0.786906	-0.324398	-0.200323	0.796109	-0.322827	-0.203277	0.857563	-0.329334	-0.253329	0.519052	-0.348829	-0.233056	0.506078	-0.467901	-0.333277	0.405232	-0.327163	-0.346726	0.365878	-0.336719	-0.287294	0.352903	-0.334703	-0.277744	0.391908	-0.328791	-0.418843	0.137410	-0.417776	-0.282452	0.057686	-0.338362	-0.222022	0.063153	-0.397246	-0.195105	0.052296	-0.388167	-0.286528	0.849801	-0.716707	-0.269374	0.791217	-0.726255	-0.206242	0.804236	-0.730034	-0.214388	0.863376	-0.721414	-0.269146	0.525782	-0.706014	-0.232547	0.517604	-0.587802	-0.347376	0.397587	-0.717788	-0.359956	0.359814	-0.710572	-0.299548	0.344911	-0.721999	-0.295236	0.388449	-0.728391	-0.425043	0.129098	-0.639438	-0.283765	0.061092	-0.728227	-0.223554	0.071599	-0.674096	-0.199776	0.058183	-0.685534	
132	0.6600	-0.309917	1.547346	-0.519832	-0.255020	1.541378	-0.698629	-0.261429	1.539031	-0.334726	-0.160831	1.494884	-0.525252	-0.182539	1.029060	-0.403412	-0.186753	1.031086	-0.642138	-0.257338	1.105614	-0.356034	-0.255632	1.099484	-0.686019	-0.354539	1.100067	-0.476087	-0.356462	1.103829	-0.564399	-0.354331	1.105085	-0.517255	-0.273964	0.844400	-0.329037	-0.263606	0.785848	-0.324108	-0.199368	0.795166	-0.323107	-0.202487	0.856625	-0.329677	-0.252571	0.518149	-0.348472	-0.232456	0.505261	-0.467654	-0.333030	0.404665	-0.327010	-0.346571	0.365367	-0.336636	-0.287222	0.352180	-0.334396	-0.277525	0.391170	-0.328449	-0.419178	0.136775	-0.417553	-0.282440	0.057205	-0.338606	-0.222191	0.062779	-0.397643	-0.195192	0.051864	-0.388794	-0.285741	0.848626	-0.717018	-0.268437	0.790076	-0.726439	-0.205303	0.803185	-0.729752	-0.213589	0.862305	-0.721195	-0.268893	0.524905	-0.706175	-0.232440	0.516689	-0.587900	-0.347011	0.396618	-0.718088	-0.359542	0.358831	-0.710832	-0.299106	0.343992	-0.722207	-0.294861	0.387535	-0.728640	-0.424562	0.128017	-0.639967	-0.282407	0.059864	-0.727400	-0.222590	0.070922	-0.673018	-0.198692	0.057471	-0.684158	
